<svg width="655" height="134" viewBox="0 0 655 134" fill="none" xmlns="http://www.w3.org/2000/svg">
<g clip-path="url(#clip0)">
<path d="M582.618 40.0008L571.995 58.4004L561.372 40.0008H525.996L571.995 119.674L617.994 40.0008H582.618Z" fill="#41B883"/>
<path d="M582.62 40.0004L571.997 58.4L561.374 40.0004H544.398L571.997 87.8034L599.597 40.0004H582.62Z" fill="#34495E"/>
</g>
<path d="M518.238 33V21.0247H520.581L522.01 25.6939L522.504 27.4884H522.577L523.053 25.6939L524.5 21.0247H526.844V33H524.976V28.1659C524.976 27.8485 524.988 27.4701 525.013 27.0306C525.037 26.5912 525.062 26.1395 525.086 25.6756C525.123 25.2118 525.159 24.7662 525.196 24.3389C525.232 23.9117 525.263 23.5516 525.287 23.2586H525.232L524.427 26.0418L523.108 29.8322H521.9L520.6 26.0418L519.812 23.2586H519.757C519.794 23.5516 519.831 23.9117 519.867 24.3389C519.904 24.7662 519.934 25.2118 519.959 25.6756C519.995 26.1395 520.02 26.5912 520.032 27.0306C520.057 27.4701 520.069 27.8485 520.069 28.1659V33H518.238ZM532.33 33.2197C531.89 33.2197 531.488 33.1526 531.121 33.0183C530.755 32.8962 530.438 32.7192 530.169 32.4873C529.901 32.2554 529.693 31.9807 529.547 31.6633C529.4 31.3337 529.327 30.9736 529.327 30.583C529.327 30.0825 529.443 29.643 529.675 29.2646C529.907 28.8739 530.273 28.5443 530.773 28.2758C531.274 28.0072 531.915 27.7875 532.696 27.6166C533.477 27.4457 534.423 27.3236 535.534 27.2504C535.498 26.7377 535.315 26.3165 534.985 25.9869C534.655 25.6573 534.124 25.4925 533.392 25.4925C532.879 25.4925 532.373 25.5902 531.872 25.7855C531.384 25.9686 530.908 26.1883 530.444 26.4447L529.675 25.0347C530.224 24.7174 530.853 24.4305 531.561 24.1741C532.269 23.9178 533.007 23.7896 533.776 23.7896C535.034 23.7896 535.992 24.1253 536.651 24.7967C537.31 25.4559 537.64 26.4142 537.64 27.6715V33H535.919L535.754 31.883H535.699C535.223 32.2493 534.692 32.5666 534.106 32.8352C533.532 33.0916 532.94 33.2197 532.33 33.2197ZM532.971 31.5717C533.422 31.5717 533.856 31.4741 534.271 31.2788C534.698 31.0712 535.119 30.8027 535.534 30.4731V28.5688C534.729 28.6298 534.057 28.7152 533.52 28.8251C532.983 28.9228 532.556 29.0509 532.238 29.2096C531.921 29.3683 531.695 29.5514 531.561 29.759C531.427 29.9543 531.359 30.174 531.359 30.4182C531.359 30.821 531.512 31.114 531.817 31.2971C532.135 31.4802 532.519 31.5717 532.971 31.5717ZM543.822 33.2197C543.248 33.2197 542.723 33.116 542.247 32.9084C541.771 32.6887 541.362 32.3774 541.02 31.9746C540.691 31.5717 540.434 31.0835 540.251 30.5097C540.068 29.9238 539.977 29.2585 539.977 28.5138C539.977 27.7814 540.087 27.1222 540.306 26.5362C540.526 25.9503 540.819 25.4559 541.185 25.0531C541.564 24.6502 541.991 24.3389 542.467 24.1192C542.943 23.8995 543.437 23.7896 543.95 23.7896C544.463 23.7896 544.915 23.8812 545.305 24.0643C545.696 24.2474 546.068 24.5098 546.422 24.8516H546.477L546.367 23.3318V20.0725H548.491V33H546.752L546.587 31.9563H546.532C546.178 32.3103 545.763 32.6094 545.287 32.8535C544.823 33.0977 544.335 33.2197 543.822 33.2197ZM544.335 31.4802C545.079 31.4802 545.757 31.1201 546.367 30.3998V26.3531C546.05 26.0479 545.732 25.8343 545.415 25.7122C545.098 25.5902 544.774 25.5291 544.445 25.5291C544.127 25.5291 543.828 25.5963 543.547 25.7306C543.279 25.8648 543.041 26.0602 542.833 26.3165C542.626 26.5607 542.461 26.8658 542.339 27.2321C542.217 27.5983 542.156 28.0194 542.156 28.4955C542.156 29.4721 542.345 30.2167 542.723 30.7294C543.102 31.2299 543.639 31.4802 544.335 31.4802ZM556.028 33.2197C555.345 33.2197 554.704 33.116 554.106 32.9084C553.507 32.6887 552.983 32.3774 552.531 31.9746C552.091 31.5717 551.743 31.0774 551.487 30.4914C551.231 29.9055 551.103 29.2402 551.103 28.4955C551.103 27.7631 551.231 27.11 551.487 26.5362C551.743 25.9503 552.085 25.4559 552.513 25.0531C552.952 24.638 553.446 24.3267 553.996 24.1192C554.557 23.8995 555.143 23.7896 555.754 23.7896C556.425 23.7896 557.017 23.8995 557.53 24.1192C558.042 24.3267 558.476 24.6197 558.83 24.9981C559.184 25.3643 559.452 25.8099 559.635 26.3348C559.819 26.8597 559.91 27.4335 559.91 28.056C559.91 28.2636 559.898 28.465 559.874 28.6603C559.861 28.8434 559.843 28.996 559.819 29.1181H553.208C553.33 29.9604 553.666 30.583 554.215 30.9858C554.765 31.3886 555.461 31.5901 556.303 31.5901C556.779 31.5901 557.218 31.5229 557.621 31.3886C558.024 31.2544 558.427 31.0712 558.83 30.8393L559.544 32.1577C559.068 32.4751 558.525 32.7314 557.914 32.9268C557.316 33.1221 556.687 33.2197 556.028 33.2197ZM555.809 25.4193C555.186 25.4193 554.637 25.6024 554.161 25.9686C553.697 26.3348 553.398 26.8841 553.263 27.6166H558.042C557.969 26.8841 557.737 26.3348 557.347 25.9686C556.968 25.6024 556.455 25.4193 555.809 25.4193ZM576.229 33.2197C575.179 33.2197 574.416 32.9084 573.94 32.2859C573.464 31.6511 573.226 30.7478 573.226 29.5759V24.0093H575.332V29.3012C575.332 30.0336 575.454 30.5707 575.698 30.9126C575.955 31.2422 576.394 31.4069 577.017 31.4069C577.444 31.4069 577.822 31.3093 578.152 31.114C578.494 30.9187 578.866 30.5707 579.269 30.0703V24.0093H581.375V33H579.653L579.489 31.5717H579.415C578.988 32.0722 578.518 32.4751 578.005 32.7803C577.493 33.0732 576.901 33.2197 576.229 33.2197ZM588.472 33.2197C587.63 33.2197 586.824 33.0855 586.055 32.8169C585.286 32.5361 584.621 32.2065 584.059 31.8281L584.975 30.4914C585.524 30.8454 586.104 31.1262 586.714 31.3337C587.337 31.529 588.014 31.6267 588.747 31.6267C589.369 31.6267 589.827 31.5229 590.12 31.3154C590.425 31.1079 590.578 30.8515 590.578 30.5463C590.578 30.3998 590.547 30.2717 590.486 30.1618C590.425 30.0397 590.303 29.9238 590.12 29.8139C589.937 29.704 589.681 29.6003 589.351 29.5026C589.034 29.405 588.612 29.3012 588.088 29.1913C586.879 28.9472 585.994 28.6054 585.432 28.1659C584.883 27.7265 584.608 27.1649 584.608 26.4813C584.608 25.6878 584.95 25.0408 585.634 24.5403C586.317 24.0399 587.294 23.7896 588.564 23.7896C589.308 23.7896 590.004 23.9117 590.651 24.1558C591.298 24.4 591.853 24.6746 592.317 24.9798L591.347 26.2799C590.907 25.9991 590.437 25.7794 589.937 25.6207C589.436 25.462 588.918 25.3827 588.381 25.3827C587.782 25.3827 587.355 25.4803 587.099 25.6756C586.842 25.8587 586.714 26.0907 586.714 26.3714C586.714 26.6888 586.897 26.9269 587.264 27.0856C587.63 27.2443 588.228 27.4152 589.058 27.5983C589.778 27.757 590.37 27.9279 590.834 28.111C591.298 28.2941 591.664 28.5016 591.933 28.7336C592.214 28.9533 592.409 29.2035 592.519 29.4843C592.629 29.7651 592.684 30.0825 592.684 30.4365C592.684 30.8271 592.592 31.1933 592.409 31.5351C592.226 31.8647 591.957 32.1577 591.603 32.4141C591.249 32.6582 590.81 32.8535 590.285 33C589.76 33.1465 589.156 33.2197 588.472 33.2197ZM599.342 33V25.6756H595.441V24.0093H601.447V33H599.342ZM600.257 22.3613C599.83 22.3613 599.47 22.2332 599.177 21.9768C598.896 21.7205 598.756 21.3787 598.756 20.9514C598.756 20.5242 598.896 20.1823 599.177 19.926C599.47 19.6574 599.83 19.5232 600.257 19.5232C600.684 19.5232 601.038 19.6574 601.319 19.926C601.612 20.1823 601.759 20.5242 601.759 20.9514C601.759 21.3787 601.612 21.7205 601.319 21.9768C601.038 22.2332 600.684 22.3613 600.257 22.3613ZM606.384 33V24.0093H608.124L608.288 25.3643H608.362C608.789 24.9371 609.259 24.5709 609.772 24.2657C610.297 23.9483 610.907 23.7896 611.603 23.7896C612.64 23.7896 613.403 24.107 613.892 24.7418C614.38 25.3643 614.624 26.2616 614.624 27.4335V33H612.5V27.7081C612.5 26.9757 612.372 26.4447 612.115 26.1151C611.871 25.7733 611.438 25.6024 610.815 25.6024C610.376 25.6024 609.985 25.7061 609.644 25.9137C609.302 26.1212 608.923 26.4386 608.508 26.8658V33H606.384ZM621.099 36.9735C620.476 36.9735 619.915 36.9246 619.414 36.827C618.914 36.7293 618.481 36.5767 618.114 36.3692C617.76 36.1739 617.486 35.9236 617.29 35.6185C617.095 35.3255 616.997 34.9776 616.997 34.5747C616.997 33.8423 617.473 33.2136 618.426 32.6887V32.6155C618.181 32.469 617.968 32.2798 617.785 32.0478C617.602 31.8037 617.51 31.4924 617.51 31.114C617.51 30.821 617.608 30.5219 617.803 30.2167C617.998 29.9116 618.261 29.6491 618.59 29.4294V29.3561C618.273 29.1242 617.998 28.8129 617.766 28.4223C617.547 28.0316 617.437 27.5678 617.437 27.0306C617.437 26.5179 617.534 26.0602 617.73 25.6573C617.937 25.2545 618.206 24.9188 618.535 24.6502C618.877 24.3694 619.268 24.1558 619.707 24.0093C620.159 23.8628 620.635 23.7896 621.136 23.7896C621.648 23.7896 622.118 23.8628 622.546 24.0093H626.226V25.6207H624.157C624.316 25.7916 624.45 26.0113 624.56 26.2799C624.682 26.5362 624.743 26.8109 624.743 27.1039C624.743 27.6044 624.645 28.0438 624.45 28.4223C624.267 28.8007 624.01 29.1181 623.681 29.3744C623.363 29.6308 622.985 29.8261 622.546 29.9604C622.106 30.0947 621.636 30.1618 621.136 30.1618C620.708 30.1618 620.251 30.0764 619.762 29.9055C619.396 30.1252 619.213 30.406 619.213 30.7478C619.213 31.3093 619.781 31.5901 620.916 31.5901H622.747C623.919 31.5901 624.798 31.761 625.384 32.1028C625.982 32.4324 626.281 32.9939 626.281 33.7874C626.281 34.2268 626.159 34.6419 625.915 35.0325C625.671 35.4231 625.323 35.7588 624.871 36.0396C624.432 36.3326 623.888 36.5584 623.241 36.7171C622.607 36.888 621.892 36.9735 621.099 36.9735ZM621.136 28.8251C621.599 28.8251 621.996 28.6725 622.326 28.3673C622.668 28.0499 622.839 27.6044 622.839 27.0306C622.839 26.4813 622.668 26.0479 622.326 25.7306C621.996 25.4132 621.599 25.2545 621.136 25.2545C620.672 25.2545 620.269 25.4132 619.927 25.7306C619.597 26.0479 619.433 26.4813 619.433 27.0306C619.433 27.6044 619.597 28.0499 619.927 28.3673C620.269 28.6725 620.672 28.8251 621.136 28.8251ZM621.355 35.5818C621.795 35.5818 622.192 35.5391 622.546 35.4537C622.9 35.3804 623.205 35.2767 623.461 35.1424C623.717 35.0081 623.913 34.8555 624.047 34.6846C624.181 34.5137 624.248 34.3306 624.248 34.1353C624.248 33.7813 624.096 33.5432 623.791 33.4212C623.498 33.3113 623.046 33.2564 622.436 33.2564H621.007C620.434 33.2564 619.976 33.2136 619.634 33.1282C619.317 33.3113 619.091 33.5005 618.957 33.6958C618.822 33.8911 618.755 34.0926 618.755 34.3001C618.755 34.7029 618.975 35.0142 619.414 35.2339C619.866 35.4659 620.513 35.5818 621.355 35.5818Z" fill="#41B883"/>
<path d="M70.4623 97V47.9044H52.3201V40.6819H97.2026V47.9044H79.0604V97H70.4623ZM121.244 98.0318C119.238 98.0318 117.346 97.7452 115.569 97.172C113.849 96.5988 112.359 95.7963 111.098 94.7645C109.837 93.6754 108.834 92.3856 108.089 90.8953C107.401 89.4049 107.057 87.7426 107.057 85.9084C107.057 83.5582 107.601 81.4946 108.691 79.7177C109.837 77.9407 111.585 76.4217 113.935 75.1606C116.343 73.8996 119.41 72.8678 123.136 72.0653C126.919 71.2628 131.447 70.6609 136.721 70.2597C136.606 67.6802 135.746 65.4734 134.141 63.6391C132.594 61.8048 129.957 60.8877 126.231 60.8877C123.651 60.8877 121.129 61.3749 118.664 62.3493C116.257 63.3238 114.021 64.4129 111.958 65.6167L108.777 59.8559C109.923 59.168 111.213 58.4802 112.646 57.7923C114.079 57.0471 115.598 56.3879 117.203 55.8147C118.865 55.2415 120.556 54.783 122.276 54.439C124.053 54.0951 125.858 53.9231 127.693 53.9231C133.539 53.9231 137.924 55.4995 140.848 58.6521C143.771 61.8048 145.233 66.1612 145.233 71.7214V97H138.268L137.58 91.5831H137.322C135.087 93.3028 132.565 94.8218 129.756 96.1402C127.005 97.4012 124.167 98.0318 121.244 98.0318ZM123.651 91.2392C125.887 91.2392 128.065 90.752 130.186 89.7775C132.364 88.8031 134.542 87.4274 136.721 85.6504V75.6765C132.594 76.0204 129.154 76.479 126.403 77.0522C123.651 77.5681 121.445 78.256 119.782 79.1158C118.177 79.9183 117.031 80.8354 116.343 81.8672C115.655 82.899 115.311 84.0454 115.311 85.3065C115.311 87.4274 116.114 88.9464 117.719 89.8635C119.381 90.7807 121.359 91.2392 123.651 91.2392ZM178.388 98.0318C174.376 98.0318 170.593 97.4012 167.039 96.1402C163.485 94.8218 160.418 93.2741 157.839 91.4972L161.622 85.9943C164.087 87.714 166.752 89.061 169.618 90.0355C172.541 91.0099 175.837 91.4972 179.506 91.4972C182.773 91.4972 185.181 90.9526 186.728 89.8635C188.276 88.7171 189.05 87.3414 189.05 85.7364C189.05 84.9912 188.907 84.3034 188.62 83.6728C188.333 83.0423 187.732 82.4691 186.814 81.9532C185.955 81.38 184.722 80.8354 183.117 80.3195C181.512 79.8036 179.391 79.2591 176.755 78.6859C171.194 77.5395 167.067 75.9918 164.373 74.0429C161.736 72.0366 160.418 69.4285 160.418 66.2185C160.418 64.4416 160.791 62.8079 161.536 61.3176C162.338 59.8272 163.485 58.5375 164.975 57.4484C166.523 56.3593 168.414 55.4995 170.65 54.8689C172.885 54.2384 175.465 53.9231 178.388 53.9231C181.713 53.9231 184.865 54.4963 187.846 55.6428C190.884 56.7319 193.464 57.9929 195.585 59.426L191.629 64.7568C189.623 63.4384 187.416 62.4067 185.009 61.6615C182.659 60.859 180.194 60.4577 177.614 60.4577C174.404 60.4577 172.14 60.9736 170.822 62.0054C169.561 63.0372 168.93 64.2983 168.93 65.7886C168.93 67.4509 169.819 68.712 171.596 69.5718C173.373 70.4316 176.325 71.2915 180.452 72.1513C183.891 72.8964 186.7 73.6989 188.878 74.5588C191.113 75.4186 192.862 76.3644 194.123 77.3962C195.441 78.4279 196.358 79.603 196.874 80.9214C197.39 82.1825 197.648 83.6155 197.648 85.2205C197.648 86.9975 197.218 88.6598 196.358 90.2074C195.499 91.7551 194.238 93.1308 192.575 94.3346C190.97 95.481 188.964 96.3695 186.556 97C184.206 97.6879 181.484 98.0318 178.388 98.0318ZM212.059 97V36.0389H220.572V75.7625H220.916L241.637 54.9549H251.181L234.673 71.6354L253.245 97H243.873L229.428 76.8803L220.572 85.8224V97H212.059ZM283.563 98.0318C280.353 98.0318 277.372 97.5446 274.621 96.5701C271.869 95.5956 269.462 94.1626 267.398 92.271C265.335 90.3794 263.701 88.0579 262.497 85.3065C261.351 82.5551 260.778 79.4311 260.778 75.9345C260.778 72.4952 261.379 69.4285 262.583 66.7344C263.787 63.983 265.363 61.6615 267.312 59.7699C269.318 57.8783 271.611 56.4453 274.191 55.4708C276.77 54.439 279.464 53.9231 282.273 53.9231C285.368 53.9231 288.12 54.4104 290.527 55.3848C292.935 56.3593 294.941 57.735 296.546 59.5119C298.208 61.2316 299.469 63.3238 300.329 65.7886C301.189 68.1961 301.619 70.8615 301.619 73.7849C301.619 74.7021 301.59 75.5619 301.533 76.3644C301.476 77.1669 301.39 77.8547 301.275 78.4279H269.29C269.748 82.7843 271.382 86.023 274.191 88.1439C277.057 90.2648 280.553 91.3252 284.68 91.3252C287.031 91.3252 289.18 91.0099 291.129 90.3794C293.078 89.6915 294.998 88.7744 296.89 87.628L299.899 93.0448C297.721 94.4779 295.256 95.6816 292.505 96.6561C289.811 97.5732 286.83 98.0318 283.563 98.0318ZM282.531 60.6297C280.926 60.6297 279.407 60.8877 277.974 61.4035C276.541 61.8621 275.251 62.5786 274.105 63.5531C272.958 64.5276 271.984 65.7313 271.181 67.1643C270.379 68.5974 269.806 70.2597 269.462 72.1513H293.967C293.68 68.3108 292.505 65.4447 290.441 63.5531C288.435 61.6042 285.798 60.6297 282.531 60.6297ZM318.61 97V54.9549H325.66L326.348 64.7568H326.606C328.784 61.3176 331.421 58.6521 334.516 56.7605C337.669 54.8689 341.137 53.9231 344.92 53.9231C346.582 53.9231 348.044 54.0664 349.305 54.353C350.566 54.5823 351.856 55.0122 353.174 55.6428L351.283 62.9512C349.85 62.4926 348.617 62.1487 347.586 61.9194C346.554 61.6902 345.235 61.5755 343.63 61.5755C340.592 61.5755 337.669 62.4353 334.86 64.155C332.052 65.8746 329.472 68.8553 327.122 73.0971V97H318.61Z" fill="#FDCB6E"/>
<path d="M412.3 34.9341H385.979C382.36 34.9341 379.432 37.8952 379.432 41.5144L379.399 94.1563C379.399 97.7754 382.327 100.736 385.946 100.736H425.46C429.079 100.736 432.041 97.7754 432.041 94.1563V54.6748L412.3 34.9341ZM402.232 87.576L390.585 75.929L395.224 71.2899L402.199 78.265L416.149 64.3149L420.788 68.954L402.232 87.576ZM409.01 57.965V39.8693L427.105 57.965H409.01Z" fill="#FDCB6E"/>
<defs>
<clipPath id="clip0">
<rect width="92" height="79.674" fill="white" transform="translate(526 40)"/>
</clipPath>
</defs>
</svg>
